# xmcd
#
# Track frame offsets: 
#        150
#        16169
#        26016
#        36267
#        48281
#        64523
#        76411
#        84788
#        94956
#        106886
#        118147
#        127541
#        143574
#        158987
#
# Disc length: 2307 seconds
#
# Revision: 0
# Processed by: cddbd v1.5.2PL0 Copyright (c) Steve Scherf et al.
# Submitted via: ExactAudioCopy v0.99pb4
#
DISCID=a109010e
DTITLE=Ron Crowley - You and Me
DYEAR=2006
DGENRE=Classic Country
TTITLE0=Cowboy Jack
TTITLE1=Your Cheatin' Heart
TTITLE2=I Overlooked an Orchid
TTITLE3=Folsom Prison Blues
TTITLE4=You and Me
TTITLE5=Rocking Alone (In an Old Rocking Chair)
TTITLE6=Crazy Arms
TTITLE7=Four Walls
TTITLE8=Don't Squeeze Me Sharmon
TTITLE9=Crystal Chandeliers
TTITLE10=In the Garden
TTITLE11=If I Could Hear My Mother Pray Again
TTITLE12=We're Not Strangers
TTITLE13=I Saw the Light - I'll Fly Away
EXTD=
EXTT0=
EXTT1=
EXTT2=
EXTT3=
EXTT4=
EXTT5=
EXTT6=
EXTT7=
EXTT8=
EXTT9=
EXTT10=
EXTT11=
EXTT12=
EXTT13=
PLAYORDER=
